<mxfile host="app.diagrams.net" agent="Mozilla/5.0 (Windows NT 10.0; Win64; x64) AppleWebKit/537.36 (KHTML, like Gecko) Chrome/131.0.0.0 Safari/537.36" version="25.0.3">
  <diagram name="Inventory Control System" id="UfsWmib_87z0dJYuPxlu">
    <mxGraphModel dx="1221" dy="725" grid="1" gridSize="10" guides="1" tooltips="1" connect="1" arrows="1" fold="1" page="1" pageScale="1" pageWidth="827" pageHeight="1169" math="0" shadow="0">
      <root>
        <mxCell id="0" />
        <mxCell id="1" parent="0" />
        <mxCell id="ZxYCyNb9GHyZLmoiOR7f-35" value="" style="points=[[0.145,0.145,0],[0.5,0,0],[0.855,0.145,0],[1,0.5,0],[0.855,0.855,0],[0.5,1,0],[0.145,0.855,0],[0,0.5,0]];shape=mxgraph.bpmn.event;html=1;verticalLabelPosition=bottom;labelBackgroundColor=#ffffff;verticalAlign=top;align=center;perimeter=ellipsePerimeter;outlineConnect=0;aspect=fixed;outline=standard;symbol=general;" parent="1" vertex="1">
          <mxGeometry x="70" y="360" width="50" height="50" as="geometry" />
        </mxCell>
        <mxCell id="ZxYCyNb9GHyZLmoiOR7f-36" value="" style="points=[[0.145,0.145,0],[0.5,0,0],[0.855,0.145,0],[1,0.5,0],[0.855,0.855,0],[0.5,1,0],[0.145,0.855,0],[0,0.5,0]];shape=mxgraph.bpmn.event;html=1;verticalLabelPosition=bottom;labelBackgroundColor=#ffffff;verticalAlign=top;align=center;perimeter=ellipsePerimeter;outlineConnect=0;aspect=fixed;outline=standard;symbol=general;strokeWidth=3;" parent="1" vertex="1">
          <mxGeometry x="880" y="350" width="50" height="50" as="geometry" />
        </mxCell>
        <mxCell id="ZxYCyNb9GHyZLmoiOR7f-37" style="edgeStyle=orthogonalEdgeStyle;rounded=0;orthogonalLoop=1;jettySize=auto;html=1;" parent="1" source="ZxYCyNb9GHyZLmoiOR7f-38" edge="1">
          <mxGeometry relative="1" as="geometry">
            <mxPoint x="360" y="385" as="targetPoint" />
          </mxGeometry>
        </mxCell>
        <mxCell id="ZxYCyNb9GHyZLmoiOR7f-38" value="" style="points=[[0.25,0,0],[0.5,0,0],[0.75,0,0],[1,0.25,0],[1,0.5,0],[1,0.75,0],[0.75,1,0],[0.5,1,0],[0.25,1,0],[0,0.75,0],[0,0.5,0],[0,0.25,0]];shape=mxgraph.bpmn.task;whiteSpace=wrap;rectStyle=rounded;size=10;html=1;container=1;expand=0;collapsible=0;taskMarker=abstract;" parent="1" vertex="1">
          <mxGeometry x="180" y="357.5" width="120" height="55" as="geometry" />
        </mxCell>
        <mxCell id="ZxYCyNb9GHyZLmoiOR7f-39" value="Receive inventory requests" style="text;html=1;align=center;verticalAlign=middle;whiteSpace=wrap;rounded=0;" parent="ZxYCyNb9GHyZLmoiOR7f-38" vertex="1">
          <mxGeometry x="10" y="12.5" width="100" height="30" as="geometry" />
        </mxCell>
        <mxCell id="ZxYCyNb9GHyZLmoiOR7f-40" style="edgeStyle=orthogonalEdgeStyle;rounded=0;orthogonalLoop=1;jettySize=auto;html=1;entryX=0;entryY=0.5;entryDx=0;entryDy=0;entryPerimeter=0;" parent="1" source="ZxYCyNb9GHyZLmoiOR7f-35" target="ZxYCyNb9GHyZLmoiOR7f-38" edge="1">
          <mxGeometry relative="1" as="geometry" />
        </mxCell>
        <mxCell id="ZxYCyNb9GHyZLmoiOR7f-41" style="edgeStyle=orthogonalEdgeStyle;rounded=0;orthogonalLoop=1;jettySize=auto;html=1;exitX=0.5;exitY=1;exitDx=0;exitDy=0;exitPerimeter=0;entryX=0.5;entryY=1;entryDx=0;entryDy=0;entryPerimeter=0;" parent="1" target="ZxYCyNb9GHyZLmoiOR7f-36" edge="1">
          <mxGeometry relative="1" as="geometry">
            <mxPoint x="690" y="460" as="targetPoint" />
            <mxPoint x="555" y="410" as="sourcePoint" />
            <Array as="points">
              <mxPoint x="555" y="460" />
              <mxPoint x="905" y="460" />
            </Array>
          </mxGeometry>
        </mxCell>
        <mxCell id="ZxYCyNb9GHyZLmoiOR7f-43" value="" style="points=[[0.25,0,0],[0.5,0,0],[0.75,0,0],[1,0.25,0],[1,0.5,0],[1,0.75,0],[0.75,1,0],[0.5,1,0],[0.25,1,0],[0,0.75,0],[0,0.5,0],[0,0.25,0]];shape=mxgraph.bpmn.task;whiteSpace=wrap;rectStyle=rounded;size=10;html=1;container=1;expand=0;collapsible=0;taskMarker=abstract;" parent="1" vertex="1">
          <mxGeometry x="359" y="357.5" width="120" height="55" as="geometry" />
        </mxCell>
        <mxCell id="ZxYCyNb9GHyZLmoiOR7f-44" value="Check stock levels" style="text;html=1;align=center;verticalAlign=middle;whiteSpace=wrap;rounded=0;" parent="ZxYCyNb9GHyZLmoiOR7f-43" vertex="1">
          <mxGeometry x="7.5" y="12.5" width="105" height="30" as="geometry" />
        </mxCell>
        <mxCell id="ZxYCyNb9GHyZLmoiOR7f-45" style="edgeStyle=orthogonalEdgeStyle;rounded=0;orthogonalLoop=1;jettySize=auto;html=1;entryX=0;entryY=0.5;entryDx=0;entryDy=0;entryPerimeter=0;" parent="1" source="ZxYCyNb9GHyZLmoiOR7f-43" edge="1">
          <mxGeometry relative="1" as="geometry">
            <mxPoint x="530" y="385" as="targetPoint" />
          </mxGeometry>
        </mxCell>
        <mxCell id="ZxYCyNb9GHyZLmoiOR7f-46" value="" style="points=[[0.25,0,0],[0.5,0,0],[0.75,0,0],[1,0.25,0],[1,0.5,0],[1,0.75,0],[0.75,1,0],[0.5,1,0],[0.25,1,0],[0,0.75,0],[0,0.5,0],[0,0.25,0]];shape=mxgraph.bpmn.task;whiteSpace=wrap;rectStyle=rounded;size=10;html=1;container=1;expand=0;collapsible=0;taskMarker=abstract;" parent="1" vertex="1">
          <mxGeometry x="680" y="250" width="120" height="80" as="geometry" />
        </mxCell>
        <mxCell id="ZxYCyNb9GHyZLmoiOR7f-48" value="Order more stock&amp;nbsp;with a long shelf life" style="text;html=1;align=center;verticalAlign=middle;whiteSpace=wrap;rounded=0;" parent="ZxYCyNb9GHyZLmoiOR7f-46" vertex="1">
          <mxGeometry x="2.5" y="18.18" width="115" height="43.64" as="geometry" />
        </mxCell>
        <mxCell id="ZxYCyNb9GHyZLmoiOR7f-57" style="edgeStyle=orthogonalEdgeStyle;rounded=0;orthogonalLoop=1;jettySize=auto;html=1;entryX=0.008;entryY=0.346;entryDx=0;entryDy=0;entryPerimeter=0;exitX=0.5;exitY=0;exitDx=0;exitDy=0;exitPerimeter=0;" parent="1" source="ZxYCyNb9GHyZLmoiOR7f-56" target="ZxYCyNb9GHyZLmoiOR7f-46" edge="1">
          <mxGeometry relative="1" as="geometry">
            <mxPoint x="555" y="280" as="targetPoint" />
          </mxGeometry>
        </mxCell>
        <mxCell id="ZxYCyNb9GHyZLmoiOR7f-56" value="" style="points=[[0.25,0.25,0],[0.5,0,0],[0.75,0.25,0],[1,0.5,0],[0.75,0.75,0],[0.5,1,0],[0.25,0.75,0],[0,0.5,0]];shape=mxgraph.bpmn.gateway2;html=1;verticalLabelPosition=bottom;labelBackgroundColor=#ffffff;verticalAlign=top;align=center;perimeter=rhombusPerimeter;outlineConnect=0;outline=none;symbol=none;gwType=exclusive;" parent="1" vertex="1">
          <mxGeometry x="530" y="360" width="50" height="50" as="geometry" />
        </mxCell>
        <mxCell id="ZxYCyNb9GHyZLmoiOR7f-58" value="Stock is not adequate" style="text;html=1;align=center;verticalAlign=middle;whiteSpace=wrap;rounded=0;" parent="1" vertex="1">
          <mxGeometry x="550" y="238" width="80" height="30" as="geometry" />
        </mxCell>
        <mxCell id="ZxYCyNb9GHyZLmoiOR7f-60" style="edgeStyle=orthogonalEdgeStyle;rounded=0;orthogonalLoop=1;jettySize=auto;html=1;entryX=0.5;entryY=0;entryDx=0;entryDy=0;entryPerimeter=0;" parent="1" source="ZxYCyNb9GHyZLmoiOR7f-48" target="ZxYCyNb9GHyZLmoiOR7f-36" edge="1">
          <mxGeometry relative="1" as="geometry" />
        </mxCell>
        <mxCell id="Sz0xKydZBXqBnyudwmoP-1" value="Stock is adequate" style="text;html=1;align=center;verticalAlign=middle;whiteSpace=wrap;rounded=0;" vertex="1" parent="1">
          <mxGeometry x="550" y="470" width="80" height="30" as="geometry" />
        </mxCell>
      </root>
    </mxGraphModel>
  </diagram>
</mxfile>
